<svg width="342" height="234" viewBox="0 0 342 234" fill="none" xmlns="http://www.w3.org/2000/svg">
<rect x="132.157" y="186.527" width="24.4574" height="73.8283" rx="12.2287" transform="rotate(-56.686 132.157 186.527)" fill="#191A50" stroke="white" stroke-width="10"/>
<rect x="137.209" y="154.719" width="24.4574" height="103.942" rx="12.2287" transform="rotate(-56.686 137.209 154.719)" fill="#191A50" stroke="white" stroke-width="10"/>
<rect x="154.6" y="131.767" width="24.4574" height="108.314" rx="12.2287" transform="rotate(-56.686 154.6 131.767)" fill="#191A50" stroke="white" stroke-width="10"/>
<rect x="174.738" y="109.442" width="24.4574" height="108.314" rx="12.2287" transform="rotate(-56.686 174.738 109.442)" fill="#191A50" stroke="white" stroke-width="10"/>
<rect x="132.157" y="186.527" width="24.4574" height="73.8283" rx="12.2287" transform="rotate(-56.686 132.157 186.527)" fill="#191A50" stroke="white" stroke-width="10"/>
<path d="M157.51 47.3909C135.875 45.3291 84.0176 54.6028 84.0176 54.6028L39.3726 134.277L140.339 199.871L207.65 92.0359C207.65 92.0359 179.146 49.4526 157.51 47.3909Z" fill="#191A50"/>
<path d="M84.0176 54.6028L83.1374 49.6808L80.811 50.0969L79.6557 52.1586L84.0176 54.6028ZM157.51 47.3909L157.036 52.3683L157.51 47.3909ZM207.65 92.0359L211.892 94.6835L213.603 91.9411L211.805 89.2546L207.65 92.0359ZM140.339 199.871L137.615 204.064L141.885 206.837L144.581 202.518L140.339 199.871ZM39.3726 134.277L35.0107 131.833L32.7213 135.918L36.6486 138.47L39.3726 134.277ZM84.0176 54.6028C84.8978 59.5247 84.8977 59.5247 84.8979 59.5247C84.8982 59.5246 84.8985 59.5245 84.8991 59.5244C84.9003 59.5242 84.9023 59.5239 84.9051 59.5234C84.9107 59.5224 84.9194 59.5208 84.9311 59.5187C84.9547 59.5145 84.9906 59.5082 85.0385 59.4997C85.1343 59.4827 85.2781 59.4574 85.4675 59.4242C85.8463 59.3579 86.4073 59.2604 87.1304 59.1369C88.5767 58.8897 90.6709 58.5381 93.2531 58.1224C98.4198 57.2905 105.529 56.2034 113.302 55.181C129.055 53.1093 146.872 51.3998 157.036 52.3683L157.985 42.4134C146.513 41.3202 127.583 43.2167 111.999 45.2664C104.104 46.3046 96.8961 47.407 91.6635 48.2495C89.046 48.671 86.9199 49.0278 85.4458 49.2798C84.7087 49.4057 84.1344 49.5055 83.743 49.574C83.5473 49.6083 83.3973 49.6347 83.2956 49.6527C83.2447 49.6617 83.2059 49.6686 83.1794 49.6734C83.1662 49.6757 83.156 49.6775 83.149 49.6788C83.1455 49.6794 83.1428 49.6799 83.1409 49.6802C83.1399 49.6804 83.139 49.6805 83.1385 49.6806C83.1379 49.6808 83.1374 49.6808 84.0176 54.6028ZM157.036 52.3683C161.074 52.7531 166.012 55.1453 171.474 59.2378C176.83 63.2514 182.178 68.509 186.98 73.8346C191.764 79.1405 195.905 84.4016 198.854 88.345C200.327 90.3132 201.496 91.9446 202.293 93.0783C202.692 93.645 202.997 94.0867 203.2 94.3834C203.302 94.5317 203.378 94.6437 203.427 94.7169C203.452 94.7534 203.47 94.7803 203.481 94.7971C203.487 94.8055 203.491 94.8114 203.493 94.8148C203.495 94.8165 203.495 94.8175 203.495 94.8179C203.496 94.8181 203.495 94.8179 203.496 94.818C203.495 94.8177 203.495 94.8172 207.65 92.0359C211.805 89.2546 211.805 89.2538 211.804 89.2528C211.804 89.2523 211.803 89.2511 211.802 89.25C211.801 89.2478 211.799 89.245 211.796 89.2415C211.792 89.2345 211.785 89.225 211.777 89.213C211.761 89.1888 211.738 89.1546 211.708 89.1105C211.648 89.0224 211.562 88.895 211.449 88.731C211.224 88.4028 210.896 87.9277 210.473 87.326C209.627 86.1228 208.4 84.4113 206.862 82.3551C203.791 78.2497 199.454 72.7361 194.407 67.1384C189.378 61.5605 183.543 55.7857 177.47 51.2351C171.503 46.7634 164.765 43.0595 157.985 42.4134L157.036 52.3683ZM203.409 89.3883L136.098 197.223L144.581 202.518L211.892 94.6835L203.409 89.3883ZM143.063 195.678L42.0965 130.084L36.6486 138.47L137.615 204.064L143.063 195.678ZM43.7344 136.721L88.3795 57.0469L79.6557 52.1586L35.0107 131.833L43.7344 136.721Z" fill="white"/>
<rect x="44.9652" y="153.633" width="44.2413" height="22.9395" rx="11.4698" transform="rotate(-42.4074 44.9652 153.633)" fill="#191A50" stroke="white" stroke-width="10"/>
<rect x="62.234" y="177.36" width="61.8909" height="22.9395" rx="11.4698" transform="rotate(-42.4074 62.234 177.36)" fill="#191A50" stroke="white" stroke-width="10"/>
<rect x="91.0817" y="194.613" width="52.5111" height="22.9395" rx="11.4698" transform="rotate(-42.4074 91.0817 194.613)" fill="#191A50" stroke="white" stroke-width="10"/>
<rect x="119.929" y="207.664" width="42.5318" height="22.9395" rx="11.4698" transform="rotate(-42.4074 119.929 207.664)" fill="#191A50" stroke="white" stroke-width="10"/>
<path d="M230.316 58.382C239.562 57.7025 253.325 52.5438 253.325 52.5438L299.688 122.259L273.587 153.51L191.166 79.3309C156.792 95.8993 128.319 83.1085 128.319 71.0887C128.319 59.0689 159.632 45.1269 183.611 44.3017C202.65 43.6464 211.317 59.7784 230.316 58.382Z" fill="#191A50"/>
<path d="M253.325 52.5438L257.489 49.7751L255.29 46.468L251.571 47.8619L253.325 52.5438ZM230.316 58.382L229.95 53.3955L229.95 53.3955L230.316 58.382ZM183.611 44.3017L183.782 49.2987L183.611 44.3017ZM128.319 71.0887L123.319 71.0887L128.319 71.0887ZM191.166 79.3309L194.511 75.6144L192.017 73.3701L188.995 74.8268L191.166 79.3309ZM273.587 153.51L270.243 157.227L274.099 160.698L277.425 156.715L273.587 153.51ZM299.688 122.259L303.525 125.464L305.918 122.599L303.851 119.49L299.688 122.259ZM253.325 52.5438C251.571 47.8619 251.571 47.8617 251.571 47.8616C251.571 47.8616 251.572 47.8615 251.572 47.8615C251.572 47.8615 251.572 47.8615 251.571 47.8616C251.571 47.8618 251.569 47.8623 251.567 47.8632C251.563 47.8648 251.555 47.8677 251.544 47.8717C251.522 47.8798 251.488 47.8927 251.441 47.9099C251.347 47.9444 251.205 47.9965 251.018 48.0639C250.645 48.1988 250.094 48.3947 249.402 48.6331C248.016 49.1106 246.073 49.7544 243.855 50.4177C239.319 51.7742 234.001 53.0977 229.95 53.3955L230.683 63.3686C235.877 62.9869 242.063 61.3913 246.72 59.9985C249.099 59.2872 251.175 58.5989 252.659 58.0879C253.402 57.832 253.999 57.6196 254.414 57.4698C254.621 57.3948 254.784 57.3354 254.896 57.294C254.953 57.2733 254.996 57.257 255.027 57.2456C255.043 57.2398 255.055 57.2353 255.064 57.232C255.068 57.2303 255.072 57.229 255.075 57.2279C255.076 57.2274 255.077 57.227 255.078 57.2266C255.079 57.2265 255.079 57.2262 255.079 57.2262C255.08 57.226 255.08 57.2258 253.325 52.5438ZM229.95 53.3955C222.067 53.9748 216.325 51.0237 209.373 47.2306C202.562 43.5144 194.503 38.9239 183.439 39.3046L183.782 49.2987C191.758 49.0242 197.551 52.172 204.583 56.0089C211.475 59.7689 219.566 64.1856 230.683 63.3686L229.95 53.3955ZM183.439 39.3046C170.686 39.7435 156.201 43.6321 144.845 48.9726C139.165 51.6438 134.026 54.7902 130.223 58.2493C126.576 61.5657 123.319 65.943 123.319 71.0887L133.319 71.0887C133.319 70.2245 133.977 68.3516 136.951 65.6476C139.767 63.0861 143.955 60.4417 149.101 58.0218C159.396 53.1801 172.556 49.6851 183.782 49.2987L183.439 39.3046ZM123.319 71.0887C123.319 76.1357 126.27 80.4728 130.134 83.6429C134.065 86.868 139.452 89.3568 145.73 90.8028C158.345 93.7083 175.214 92.5701 193.337 83.8349L188.995 74.8268C172.743 82.6601 158.19 83.4107 147.975 81.058C142.838 79.8749 138.958 77.9478 136.477 75.9118C133.928 73.8208 133.319 72.0516 133.319 71.0887L123.319 71.0887ZM187.821 83.0473L270.243 157.227L276.932 149.794L194.511 75.6144L187.821 83.0473ZM277.425 156.715L303.525 125.464L295.85 119.054L269.75 150.305L277.425 156.715ZM303.851 119.49L257.489 49.7751L249.162 55.3126L295.524 125.028L303.851 119.49Z" fill="white"/>
<path d="M82.3966 40.2745L44.7791 11.7214C39.0103 7.34268 30.6446 10.3579 28.9957 17.4101L5.65694 117.233C4.66926 121.457 6.51807 125.837 10.2342 128.075L23.8914 136.302C28.6404 139.163 34.8105 137.614 37.6454 132.85L84.9445 53.353C87.5463 48.9802 86.4496 43.3509 82.3966 40.2745Z" fill="white" stroke="white" stroke-width="10"/>
<path d="M258.481 38.8256L297.331 9.3456C303.11 4.95993 311.49 7.99542 313.12 15.0651L336.458 116.291C337.46 120.638 335.463 125.122 331.561 127.284L318.014 134.793C313.334 137.386 307.442 135.837 304.643 131.277L256.003 52.0224C253.314 47.6405 254.386 41.9335 258.481 38.8256Z" fill="white" stroke="white" stroke-width="10"/>
<path d="M198.269 94.3232L204.723 108.483L158.065 182.389C153.213 180.245 150.521 179.62 145.753 179.235L198.269 94.3232Z" fill="#191A50"/>
</svg>
