<svg width="50" height="54" viewBox="0 0 50 54" fill="none" xmlns="http://www.w3.org/2000/svg">
<rect x="7" width="15" height="54" fill="#343468"/>
<rect x="2" y="4" width="24" height="50" fill="#343468"/>
<rect x="27" y="19" width="16" height="35" fill="#343468"/>
<rect x="25" y="21" width="21" height="32" fill="#343468"/>
<rect y="49" width="50" height="5" fill="#343468"/>
<rect x="7" y="8" width="2" height="4" fill="white"/>
<rect x="7" y="15" width="2" height="4" fill="white"/>
<rect x="7" y="22" width="2" height="4" fill="white"/>
<rect x="7" y="28" width="2" height="4" fill="white"/>
<rect x="7" y="34" width="2" height="4" fill="white"/>
<rect x="7" y="41" width="2" height="4" fill="white"/>
<rect x="11" y="8" width="2" height="4" fill="white"/>
<rect x="11" y="15" width="2" height="4" fill="white"/>
<rect x="11" y="22" width="2" height="4" fill="white"/>
<rect x="11" y="28" width="2" height="4" fill="white"/>
<rect x="11" y="34" width="2" height="4" fill="white"/>
<rect x="11" y="41" width="2" height="4" fill="white"/>
<rect x="15" y="8" width="2" height="4" fill="white"/>
<rect x="15" y="15" width="2" height="4" fill="white"/>
<rect x="15" y="22" width="2" height="4" fill="white"/>
<rect x="15" y="28" width="2" height="4" fill="white"/>
<rect x="15" y="34" width="2" height="4" fill="white"/>
<rect x="15" y="41" width="2" height="4" fill="white"/>
<rect x="19" y="8" width="2" height="4" fill="white"/>
<rect x="19" y="15" width="2" height="4" fill="white"/>
<rect x="19" y="22" width="2" height="4" fill="white"/>
<rect x="19" y="28" width="2" height="4" fill="white"/>
<rect x="19" y="34" width="2" height="4" fill="white"/>
<rect x="19" y="41" width="2" height="4" fill="white"/>
<line x1="25.5" y1="21" x2="25.5" y2="43" stroke="white"/>
<rect x="28" y="25" width="2" height="2" fill="white"/>
<rect x="32" y="25" width="2" height="2" fill="white"/>
<rect x="36" y="25" width="2" height="2" fill="white"/>
<rect x="40" y="25" width="2" height="2" fill="white"/>
<rect x="28" y="29" width="2" height="2" fill="white"/>
<rect x="32" y="29" width="2" height="2" fill="white"/>
<rect x="36" y="29" width="2" height="2" fill="white"/>
<rect x="40" y="29" width="2" height="2" fill="white"/>
<rect x="28" y="33" width="2" height="2" fill="white"/>
<rect x="32" y="33" width="2" height="2" fill="white"/>
<rect x="36" y="33" width="2" height="2" fill="white"/>
<rect x="40" y="33" width="2" height="2" fill="white"/>
<rect x="28" y="41" width="2" height="2" fill="white"/>
<rect x="32" y="41" width="2" height="2" fill="white"/>
<rect x="36" y="41" width="2" height="2" fill="white"/>
<rect x="40" y="41" width="2" height="2" fill="white"/>
<rect x="28" y="45" width="2" height="2" fill="white"/>
<rect x="32" y="45" width="2" height="2" fill="white"/>
<rect x="36" y="45" width="2" height="2" fill="white"/>
<rect x="40" y="45" width="2" height="2" fill="white"/>
<rect x="28" y="37" width="2" height="2" fill="white"/>
<rect x="32" y="37" width="2" height="2" fill="white"/>
<rect x="36" y="37" width="2" height="2" fill="white"/>
<rect x="40" y="37" width="2" height="2" fill="white"/>
</svg>
