<svg width="288" height="239" viewBox="0 0 288 239" fill="none" xmlns="http://www.w3.org/2000/svg">
<path d="M127.747 87.6182H109.5C103.977 87.6182 99.5 92.0728 99.5 97.5957V197.113C99.5 202.984 104.53 207.602 110.394 207.316C120.12 206.84 134.422 206.54 145 208.024C164.392 210.745 173.6 219.856 193 222.513C203.045 223.888 216.595 223.622 225.887 223.184C231.647 222.912 235.782 217.694 234.932 211.992L215.5 81.6229C215.5 81.6229 230.781 54.059 232 34.6595C232.281 30.1808 232.892 27.5667 232 23.1685C230.977 18.12 230.049 14.9141 226.5 11.1778C223.132 7.63132 220.367 5.69121 215.5 5.18252C211.308 4.74432 208.185 4.92192 205 7.68057C202.709 9.66494 201.381 14.2276 201.071 15.3972C201.022 15.583 200.972 15.7665 200.917 15.9506L198.344 24.5201C198.116 25.2817 197.797 26.0132 197.395 26.6993L186 46.1505L171.758 65.4308C170.929 66.5539 170.334 67.8478 169.644 69.0619C168.559 70.9725 166.163 74.1804 161 78.1256C153.674 83.7237 147.09 84.8678 145.412 85.0771C145.135 85.1116 144.862 85.1411 144.586 85.1828L129.244 87.5055C128.749 87.5805 128.248 87.6182 127.747 87.6182Z" fill="#191A50"/>
<path d="M129.244 87.5055L129.993 92.4492L129.993 92.4492L129.244 87.5055ZM144.586 85.1828L143.837 80.2392L143.837 80.2392L144.586 85.1828ZM145.412 85.0771L144.793 80.1155L144.793 80.1155L145.412 85.0771ZM161 78.1256L157.964 74.1527L157.964 74.1527L161 78.1256ZM169.644 69.0619L165.297 66.5921L165.297 66.5922L169.644 69.0619ZM171.758 65.4308L175.78 68.4016L175.78 68.4015L171.758 65.4308ZM186 46.1505L190.022 49.1213L190.18 48.9074L190.314 48.6779L186 46.1505ZM197.395 26.6993L201.709 29.2267L201.709 29.2267L197.395 26.6993ZM198.344 24.5201L203.133 25.9579L203.133 25.9579L198.344 24.5201ZM200.917 15.9506L196.128 14.5128L196.128 14.5128L200.917 15.9506ZM201.071 15.3972L205.904 16.68L205.904 16.6799L201.071 15.3972ZM205 7.68057L208.273 11.4601L208.273 11.4601L205 7.68057ZM215.5 5.18252L214.98 10.1554L214.98 10.1554L215.5 5.18252ZM226.5 11.1778L230.125 7.73448L230.125 7.73448L226.5 11.1778ZM232 23.1685L236.9 22.1751L236.9 22.1751L232 23.1685ZM232 34.6595L227.01 34.3459L227.01 34.3459L232 34.6595ZM215.5 81.6229L211.127 79.1986L210.602 80.1462L210.516 81.2263L215.5 81.6229ZM234.932 211.992L239.877 211.255L239.877 211.255L234.932 211.992ZM225.887 223.184L226.123 228.178L226.123 228.178L225.887 223.184ZM193 222.513L193.678 217.559L193.678 217.559L193 222.513ZM145 208.024L145.695 203.073L145.695 203.073L145 208.024ZM110.394 207.316L110.149 202.322L110.149 202.322L110.394 207.316ZM109.5 92.6182H127.747V82.6182H109.5V92.6182ZM129.993 92.4492L145.334 90.1265L143.837 80.2392L128.496 82.5618L129.993 92.4492ZM146.03 90.0387C148.308 89.7547 155.811 88.3832 164.036 82.0985L157.964 74.1527C151.536 79.0642 145.872 79.981 144.793 80.1155L146.03 90.0387ZM164.036 82.0985C169.648 77.8104 172.526 74.1126 173.992 71.5316L165.297 66.5922C164.592 67.8324 162.679 70.5504 157.964 74.1527L164.036 82.0985ZM175.78 68.4015L190.022 49.1213L181.978 43.1798L167.736 62.46L175.78 68.4015ZM190.314 48.6779L201.709 29.2267L193.081 24.172L181.686 43.6232L190.314 48.6779ZM203.133 25.9579L205.706 17.3883L196.128 14.5128L193.555 23.0824L203.133 25.9579ZM205.904 16.6799C206.027 16.216 206.364 15.0384 206.889 13.8122C207.479 12.4354 208.021 11.679 208.273 11.4601L201.727 3.90105C199.688 5.66648 198.421 8.18368 197.696 9.87672C196.907 11.7203 196.426 13.4088 196.238 14.1144L205.904 16.6799ZM208.273 11.4601C209.231 10.6308 210.018 10.2996 210.836 10.139C211.789 9.95186 213.016 9.95008 214.98 10.1554L216.02 0.20961C213.792 -0.0232431 211.362 -0.155322 208.909 0.326466C206.321 0.834748 203.954 1.97172 201.727 3.90105L208.273 11.4601ZM214.98 10.1554C216.807 10.3464 218.025 10.7734 219.065 11.3727C220.175 12.0129 221.322 12.9861 222.875 14.6212L230.125 7.73448C228.31 5.82307 226.39 4.05292 224.059 2.70927C221.657 1.32473 219.06 0.527343 216.02 0.20961L214.98 10.1554ZM222.875 14.6212C225.449 17.332 226.138 19.4174 227.1 24.1619L236.9 22.1751C235.815 16.8225 234.648 12.4963 230.125 7.73448L222.875 14.6212ZM227.1 24.1619C227.818 27.7063 227.331 29.2384 227.01 34.3459L236.99 34.9731C237.232 31.1232 237.965 27.4271 236.9 22.1751L227.1 24.1619ZM227.01 34.3459C226.457 43.1427 222.631 54.2208 218.694 63.4547C216.758 67.9944 214.856 71.9491 213.44 74.7669C212.732 76.1742 212.147 77.2937 211.743 78.0562C211.54 78.4373 211.383 78.7289 211.278 78.9222C211.226 79.0189 211.186 79.091 211.161 79.1374C211.148 79.1606 211.139 79.1774 211.133 79.1877C211.13 79.1928 211.128 79.1963 211.127 79.1981C211.127 79.199 211.127 79.1995 211.126 79.1996C211.126 79.1996 211.127 79.1994 211.127 79.1994C211.127 79.199 211.127 79.1986 215.5 81.6229C219.873 84.0471 219.873 84.0465 219.874 84.0457C219.874 84.0453 219.874 84.0444 219.875 84.0436C219.876 84.042 219.877 84.04 219.878 84.0376C219.881 84.0327 219.885 84.0261 219.889 84.0179C219.898 84.0015 219.911 83.9785 219.927 83.949C219.959 83.8899 220.006 83.8048 220.066 83.6949C220.185 83.475 220.357 83.1555 220.575 82.745C221.011 81.9242 221.63 80.7388 222.374 79.2589C223.86 76.3022 225.855 72.1535 227.892 67.3773C231.9 57.9794 236.324 45.5758 236.99 34.9731L227.01 34.3459ZM210.516 81.2263C209.131 98.6309 206.678 110.048 201.687 118.569C196.81 126.893 189.15 133.041 175.939 139.019L180.061 148.13C194.312 141.681 204.005 134.396 210.315 123.623C216.511 113.046 219.077 99.7008 220.484 82.0194L210.516 81.2263ZM94.5 97.5957V197.113H104.5V97.5957H94.5ZM210.555 82.36L229.986 212.729L239.877 211.255L220.445 80.8857L210.555 82.36ZM225.652 218.189C216.379 218.627 203.23 218.867 193.678 217.559L192.322 227.467C202.86 228.91 216.811 228.617 226.123 228.178L225.652 218.189ZM193.678 217.559C184.675 216.326 178.046 213.617 170.903 210.67C163.752 207.72 156.081 204.53 145.695 203.073L144.305 212.976C153.31 214.239 159.939 216.965 167.09 219.915C174.249 222.868 181.925 226.043 192.322 227.467L193.678 217.559ZM145.695 203.073C134.609 201.517 119.894 201.845 110.149 202.322L110.638 212.31C120.346 211.835 134.236 211.563 144.305 212.976L145.695 203.073ZM229.986 212.729C230.416 215.614 228.343 218.062 225.652 218.189L226.123 228.178C234.95 227.762 241.147 219.775 239.877 211.255L229.986 212.729ZM205.706 17.3884C205.787 17.1189 205.854 16.8654 205.904 16.68L196.238 14.1144C196.189 14.3006 196.158 14.414 196.128 14.5128L205.706 17.3884ZM94.5 197.113C94.5 205.951 102.031 212.731 110.638 212.31L110.149 202.322C107.029 202.474 104.5 200.017 104.5 197.113H94.5ZM173.992 71.5316C174.975 69.8007 175.181 69.2123 175.78 68.4016L167.736 62.46C166.676 63.8955 165.693 65.8949 165.297 66.5921L173.992 71.5316ZM145.334 90.1265C145.525 90.0977 145.644 90.0868 146.03 90.0387L144.793 80.1155C144.626 80.1364 144.199 80.1844 143.837 80.2392L145.334 90.1265ZM201.709 29.2267C202.312 28.1976 202.79 27.1002 203.133 25.9579L193.555 23.0824C193.441 23.4631 193.282 23.8289 193.081 24.172L201.709 29.2267ZM127.747 92.6182C128.499 92.6182 129.25 92.5617 129.993 92.4492L128.496 82.5618C128.248 82.5993 127.998 82.6182 127.747 82.6182V92.6182ZM109.5 82.6182C101.23 82.6182 94.5 89.2967 94.5 97.5957H104.5C104.5 94.8489 106.724 92.6182 109.5 92.6182V82.6182Z" fill="white"/>
<rect x="215" y="86.123" width="68" height="30.968" rx="15.484" fill="#191A50" stroke="white" stroke-width="10"/>
<rect x="215" y="121.096" width="68" height="30.968" rx="15.484" fill="#191A50" stroke="white" stroke-width="10"/>
<rect x="215" y="155.069" width="68" height="30.968" rx="15.484" fill="#191A50" stroke="white" stroke-width="10"/>
<rect x="215" y="190.042" width="68" height="30.968" rx="15.484" fill="#191A50" stroke="white" stroke-width="10"/>
<mask id="path-7-inside-1_950_32801" fill="white">
<rect x="29" y="69.1328" width="75" height="156.878" rx="8"/>
</mask>
<rect x="29" y="69.1328" width="75" height="156.878" rx="8" fill="#191A50" stroke="white" stroke-width="20" mask="url(#path-7-inside-1_950_32801)"/>
<mask id="path-8-inside-2_950_32801" fill="white">
<rect y="58.1416" width="75" height="180.859" rx="8"/>
</mask>
<rect y="58.1416" width="75" height="180.859" rx="8" fill="white" stroke="white" stroke-width="20" mask="url(#path-8-inside-2_950_32801)"/>
</svg>
