<svg width="263" height="234" viewBox="0 0 263 234" fill="none" xmlns="http://www.w3.org/2000/svg">
<rect width="217.797" height="220.599" rx="20" fill="white"/>
<rect x="20.5469" y="54.6348" width="175.676" height="142.256" rx="6" fill="#191A50"/>
<rect x="74.9961" y="80.4053" width="26.7109" height="26.8018" fill="white"/>
<rect x="115.062" y="80.4053" width="26.7109" height="26.8018" fill="white"/>
<rect x="36.9844" y="118.546" width="26.7109" height="26.8018" fill="white"/>
<rect x="74.9961" y="118.546" width="26.7109" height="26.8018" fill="white"/>
<rect x="36.9844" y="155.656" width="26.7109" height="26.8018" fill="white"/>
<rect x="74.9961" y="155.656" width="26.7109" height="26.8018" fill="white"/>
<rect x="68.8318" y="17.5244" width="77.0508" height="20.6167" rx="6" fill="#191A50"/>
<ellipse cx="185.436" cy="156.687" rx="77.5644" ry="77.3128" fill="white"/>
<ellipse cx="121.227" cy="157.719" rx="7.19141" ry="7.21586" fill="#191A50"/>
<ellipse cx="184.922" cy="221.631" rx="7.19141" ry="7.21586" fill="#191A50"/>
<ellipse cx="248.617" cy="157.719" rx="7.19141" ry="7.21586" fill="#191A50"/>
<ellipse cx="184.922" cy="93.8067" rx="7.19141" ry="7.21586" fill="#191A50"/>
<rect width="13.9252" height="58.6564" rx="6.96258" transform="matrix(0.699243 0.714884 -0.712507 0.701665 224.66 110.3)" fill="#191A50"/>
<rect width="13.9313" height="58.6303" rx="6.96567" transform="matrix(0.59853 -0.8011 0.799146 0.601137 133.048 130.7)" fill="#191A50"/>
<ellipse cx="185.949" cy="155.657" rx="15.4102" ry="15.4626" fill="#191A50"/>
</svg>
